# xmcd
# 
# Track frame offsets:
#     150
#     20336
#     42630
#     62779
#     78109
#     95947
#     117037
#     136588
#     153839
#     173009
#     193105
#     213728
#     233718
#     247993
# 
# Disc length: 3681
# 
# Revision: 3
# Processed by: cddbd v1.5.2PL0 Copyright (c) Steve Scherf et al.
# Submitted via: fre:ac v1.0.17
# 
DISCID=b50e5f0e
DTITLE=久保田利伸 - THE BADDEST ～Collaboration～  (Disc2)
DYEAR=2016
DGENRE=JPop
TTITLE0=Never Turn Back (Feat. Pras)
TTITLE1=Funk It Up (Guitar: Nile Rodgers)
TTITLE2=LIVING FOR TODAY (Feat. Mos Def)
TTITLE3=HOLD ME DOWN (Duet with Angie Stone)
TTITLE4=Till She Comes (Produced by The Roots)
TTITLE5=Nice and EZ (Produced by D'wayne Wiggins)
TTITLE6=SUKIYAKI ~Ue wo muite arukou~(feat. Musiq Soulchild)
TTITLE7=Masquerade (Produced by The Roots)
TTITLE8=Just The Two Of Us (Duet with Caron Wheeler)
TTITLE9=VOODOO WOMAN (Feat. Renee Neufville)
TTITLE10=Corcovado (Quiet Nights of Quiet Stars) (Acoustic Piano: Daniel Jobim, Guitar: Goro Ito)
TTITLE11=NEVA SATISFIED (Produced by Ali Shaheed Muhammad)
TTITLE12=Pu Pu (Produced by Raphael Saadiq)
TTITLE13=FOREVER YOURS (Duet with Alyson Williams)
EXTD=2016.11.23  SECL-2096
EXTT0=
EXTT1=
EXTT2=
EXTT3=
EXTT4=
EXTT5=
EXTT6=
EXTT7=
EXTT8=
EXTT9=
EXTT10=
EXTT11=
EXTT12=
EXTT13=
PLAYORDER=
